<svg width="162" height="47" viewBox="0 0 162 47" fill="none" xmlns="http://www.w3.org/2000/svg">
<g clip-path="url(#clip0_47_1104)">
<rect width="162" height="47" rx="5" fill="black"/>
<ellipse cx="26.1875" cy="23.5" rx="11.6875" ry="9.625" fill="white"/>
<path d="M22.5448 22.1562C22.8252 21.9531 22.9605 21.618 22.9605 21.1571C22.9702 20.938 22.9251 20.7221 22.8284 20.5255C22.7414 20.3676 22.6125 20.2354 22.4546 20.142C22.2909 20.0427 22.109 19.977 21.9196 19.9486C21.7134 19.91 21.5039 19.8906 21.2977 19.8938H19.0321V22.4623H21.4846C21.9067 22.4655 22.2645 22.3624 22.5448 22.1562ZM22.9251 24.4765C22.6093 24.2348 22.1871 24.1155 21.6618 24.1155H19.0257V27.1448H21.6103C21.852 27.1448 22.0743 27.1223 22.2902 27.0771C22.4945 27.0372 22.6893 26.9584 22.8639 26.8451C23.0282 26.7388 23.1604 26.5938 23.2603 26.4068C23.3569 26.2199 23.4053 25.9814 23.4053 25.6946C23.4053 25.1242 23.2441 24.7214 22.9251 24.4765ZM25.5 9.0625C17.5271 9.0625 11.0625 15.5271 11.0625 23.5C11.0625 31.4729 17.5271 37.9375 25.5 37.9375C33.4729 37.9375 39.9375 31.4729 39.9375 23.5C39.9375 15.5271 33.4729 9.0625 25.5 9.0625ZM28.2876 18.3083H32.7478V19.3943H28.2876V18.3083ZM25.5 27.2641C25.2914 27.6601 24.9935 28.0021 24.6299 28.2631C24.2496 28.5273 23.8274 28.7207 23.3795 28.8335C22.9108 28.9591 22.4274 29.0209 21.9422 29.0172H16.6055V18.0247H21.7939C22.3192 18.0247 22.7962 18.073 23.2313 18.1633C23.6631 18.2535 24.0305 18.4082 24.3398 18.6177C24.646 18.8271 24.8877 19.1075 25.0585 19.4556C25.2261 19.8004 25.3131 20.2322 25.3131 20.7446C25.3131 21.2989 25.1874 21.7565 24.936 22.1271C24.6814 22.4978 24.3141 22.7975 23.8146 23.0327C24.4945 23.2261 24.994 23.5709 25.3228 24.0543C25.6579 24.5441 25.8223 25.1307 25.8223 25.8203C25.8223 26.3811 25.7159 26.8612 25.5 27.2641ZM34.4848 25.5625H28.7355C28.7355 26.1877 28.9515 26.7871 29.277 27.1094C29.6057 27.4284 30.0762 27.5896 30.6917 27.5896C31.1364 27.5896 31.5135 27.4768 31.8357 27.2544C32.1548 27.032 32.3481 26.7968 32.419 26.5519H34.3462C34.0368 27.509 33.5663 28.1922 32.9282 28.6047C32.2966 29.0172 31.5231 29.2234 30.624 29.2234C29.9956 29.2234 29.4316 29.1203 28.9257 28.9237C28.4391 28.7336 28.0008 28.4436 27.6398 28.0697C27.284 27.6858 27.0089 27.2343 26.831 26.742C26.6344 26.1974 26.5377 25.6237 26.5441 25.0469C26.5441 24.4507 26.644 23.8964 26.8374 23.3808C27.208 22.3785 27.9782 21.5761 28.9611 21.1604C29.4864 20.9412 30.0504 20.8316 30.6208 20.8381C31.2976 20.8381 31.8841 20.967 32.3933 21.2313C32.8834 21.4836 33.3091 21.8452 33.6372 22.2883C33.9627 22.7298 34.1915 23.2325 34.3365 23.7997C34.4751 24.3572 34.5234 24.9437 34.4848 25.5625ZM30.5531 22.4816C30.2051 22.4816 29.9118 22.5429 29.6862 22.6621C29.4606 22.7813 29.2737 22.9296 29.1319 23.1004C28.9969 23.2653 28.8971 23.4561 28.8387 23.6611C28.7871 23.8319 28.7517 24.006 28.7388 24.1832H32.2998C32.2482 23.6257 32.0549 23.2132 31.7971 22.9231C31.5264 22.6363 31.0913 22.4816 30.5531 22.4816Z" fill="#2354F5"/>
<path d="M50.377 37H55.409C57.976 37 59.455 35.759 59.455 33.634C59.455 32.189 58.792 31.203 57.483 30.778C58.656 30.285 59.268 29.299 59.268 27.922C59.268 25.848 57.772 24.573 55.324 24.573H50.377V37ZM55.137 26.494C56.361 26.494 57.041 27.072 57.041 28.143C57.041 29.248 56.378 29.877 55.188 29.877H52.553V26.494H55.137ZM55.324 31.713C56.531 31.713 57.228 32.308 57.228 33.362C57.228 34.484 56.548 35.079 55.324 35.079H52.553V31.713H55.324ZM64.9012 37.221C67.0942 37.221 68.6242 36.116 68.9812 34.28H67.0602C66.8222 35.079 66.0742 35.521 64.9352 35.521C63.5582 35.521 62.7762 34.773 62.6232 33.294L68.9472 33.277V32.648C68.9472 30.03 67.3492 28.347 64.8332 28.347C62.3682 28.347 60.6512 30.166 60.6512 32.801C60.6512 35.402 62.4022 37.221 64.9012 37.221ZM64.8502 30.047C66.0912 30.047 66.8902 30.812 66.8902 31.968H62.6742C62.8782 30.71 63.6262 30.047 64.8502 30.047ZM72.6811 37V32.41C72.6811 31.152 73.4461 30.234 74.7551 30.234C75.8091 30.234 76.5061 30.914 76.5061 32.325V37H78.5801V31.832C78.5801 29.656 77.4921 28.347 75.4181 28.347C74.2111 28.347 73.2251 28.874 72.6981 29.69V24.352H70.6071V37H72.6811ZM83.1169 37.221C84.4259 37.221 85.5649 36.626 85.9219 35.759L86.0749 37H87.8939V31.9C87.8939 29.571 86.4999 28.347 84.2389 28.347C81.9609 28.347 80.4649 29.537 80.4649 31.356H82.2329C82.2329 30.472 82.9129 29.962 84.1369 29.962C85.1909 29.962 85.8709 30.421 85.8709 31.56V31.747L83.3549 31.934C81.3659 32.087 80.2439 33.056 80.2439 34.603C80.2439 36.184 81.3319 37.221 83.1169 37.221ZM83.7969 35.657C82.8619 35.657 82.3519 35.283 82.3519 34.518C82.3519 33.838 82.8449 33.413 84.1369 33.294L85.8879 33.158V33.6C85.8879 34.892 85.0719 35.657 83.7969 35.657ZM92.0054 37V32.478C92.0054 31.118 92.7874 30.234 94.0624 30.234C95.1334 30.234 95.8304 30.914 95.8304 32.325V37H97.9044V31.832C97.9044 29.656 96.8164 28.347 94.7084 28.347C93.5694 28.347 92.5494 28.84 92.0224 29.69L91.8524 28.602H89.9314V37H92.0054ZM99.4491 32.784C99.4491 35.453 101.115 37.221 103.665 37.221C105.858 37.221 107.49 35.878 107.745 33.923H105.654C105.433 34.841 104.702 35.351 103.665 35.351C102.339 35.351 101.523 34.365 101.523 32.784C101.523 31.203 102.407 30.2 103.733 30.2C104.719 30.2 105.416 30.693 105.654 31.645H107.728C107.507 29.622 105.943 28.347 103.648 28.347C101.166 28.347 99.4491 30.183 99.4491 32.784ZM113.046 37.221C115.239 37.221 116.769 36.116 117.126 34.28H115.205C114.967 35.079 114.219 35.521 113.08 35.521C111.703 35.521 110.921 34.773 110.768 33.294L117.092 33.277V32.648C117.092 30.03 115.494 28.347 112.978 28.347C110.513 28.347 108.796 30.166 108.796 32.801C108.796 35.402 110.547 37.221 113.046 37.221ZM112.995 30.047C114.236 30.047 115.035 30.812 115.035 31.968H110.819C111.023 30.71 111.771 30.047 112.995 30.047Z" fill="white"/>
<path d="M52.546 12.213C53.41 12.213 54.13 12.627 54.373 13.455H55.309C55.093 12.204 53.986 11.385 52.564 11.385C50.647 11.385 49.369 12.789 49.369 14.769C49.369 16.776 50.638 18.108 52.483 18.108C53.437 18.108 54.229 17.694 54.58 17.127L54.643 18.009H55.381V14.418H52.375V15.201H54.553V15.39C54.553 16.704 53.662 17.271 52.555 17.271C51.214 17.271 50.296 16.362 50.296 14.787C50.296 13.248 51.142 12.213 52.546 12.213ZM60.8793 18V17.181H57.7923V15.12H60.5733V14.337H57.7923V12.303H60.8793V11.493H56.9103V18H60.8793ZM61.5274 12.303H63.4894V18H64.3714V12.303H66.3244V11.493H61.5274V12.303ZM72.372 18.099C73.839 18.099 75 17.235 75.279 15.939H74.343C74.1 16.74 73.344 17.253 72.39 17.253C71.076 17.253 70.212 16.263 70.212 14.742C70.212 13.221 71.076 12.231 72.39 12.231C73.335 12.231 74.064 12.744 74.307 13.59H75.252C75.009 12.258 73.884 11.385 72.417 11.385C70.554 11.385 69.285 12.744 69.285 14.751C69.285 16.767 70.518 18.099 72.372 18.099ZM76.3844 18L76.9604 16.38H79.6964L80.2814 18H81.2084L78.8234 11.493H77.8424L75.4664 18H76.3844ZM78.2204 12.897C78.2654 12.762 78.3104 12.609 78.3284 12.519C78.3464 12.618 78.3914 12.771 78.4364 12.897L79.4354 15.615H77.2304L78.2204 12.897ZM81.6954 13.248C81.6954 14.184 82.2444 14.796 83.3064 15.039L84.3774 15.282C84.9984 15.426 85.2774 15.75 85.2774 16.263C85.2774 16.911 84.7284 17.316 83.8644 17.316C83.0454 17.316 82.5234 16.92 82.5054 16.299H81.6054C81.6594 17.415 82.5414 18.108 83.8644 18.108C85.2504 18.108 86.1594 17.361 86.1594 16.191C86.1594 15.273 85.6194 14.697 84.5574 14.454L83.4864 14.202C82.8744 14.058 82.5774 13.743 82.5774 13.221C82.5774 12.582 83.1084 12.168 83.9274 12.168C84.6564 12.168 85.1154 12.546 85.1604 13.194H86.0514C85.9794 12.069 85.1784 11.376 83.9364 11.376C82.5954 11.376 81.6954 12.132 81.6954 13.248ZM91.2367 18V17.181H88.1497V15.12H90.9307V14.337H88.1497V12.303H91.2367V11.493H87.2677V18H91.2367ZM94.5977 13.248C94.5977 14.184 95.1467 14.796 96.2087 15.039L97.2797 15.282C97.9007 15.426 98.1797 15.75 98.1797 16.263C98.1797 16.911 97.6307 17.316 96.7667 17.316C95.9477 17.316 95.4257 16.92 95.4077 16.299H94.5077C94.5617 17.415 95.4437 18.108 96.7667 18.108C98.1527 18.108 99.0617 17.361 99.0617 16.191C99.0617 15.273 98.5217 14.697 97.4597 14.454L96.3887 14.202C95.7767 14.058 95.4797 13.743 95.4797 13.221C95.4797 12.582 96.0107 12.168 96.8297 12.168C97.5587 12.168 98.0177 12.546 98.0627 13.194H98.9537C98.8817 12.069 98.0807 11.376 96.8387 11.376C95.4977 11.376 94.5977 12.132 94.5977 13.248ZM99.4522 12.303H101.414V18H102.296V12.303H104.249V11.493H99.4522V12.303ZM105.091 15.687C105.091 17.19 106.045 18.108 107.584 18.108C109.114 18.108 110.068 17.181 110.068 15.687V11.493H109.177V15.633C109.177 16.668 108.61 17.253 107.584 17.253C106.549 17.253 105.973 16.677 105.973 15.633V11.493H105.091V15.687ZM113.685 18C115.611 18 116.907 16.686 116.907 14.751C116.907 12.807 115.593 11.493 113.649 11.493H111.534V18H113.685ZM113.586 12.303C115.071 12.303 115.989 13.239 115.989 14.751C115.989 16.245 115.071 17.181 113.622 17.181H112.416V12.303H113.586ZM119.147 15.354V18H120.029V15.354L122.216 11.493H121.253L119.813 14.094C119.696 14.31 119.678 14.364 119.597 14.526C119.525 14.373 119.471 14.247 119.381 14.094L117.932 11.493H116.942L119.147 15.354ZM131.395 14.742C131.395 12.762 130.108 11.376 128.263 11.376C126.427 11.376 125.14 12.771 125.14 14.742C125.14 16.722 126.418 18.108 128.254 18.108C130.099 18.108 131.395 16.722 131.395 14.742ZM130.468 14.742C130.468 16.245 129.586 17.262 128.263 17.262C126.94 17.262 126.067 16.254 126.067 14.742C126.067 13.23 126.94 12.231 128.263 12.231C129.586 12.231 130.468 13.23 130.468 14.742ZM133.405 18V12.969L136.735 18H137.617V11.493H136.735V16.524L133.405 11.493H132.523V18H133.405Z" fill="white"/>
</g>
<defs>
<clipPath id="clip0_47_1104">
<rect width="162" height="47" rx="5" fill="white"/>
</clipPath>
</defs>
</svg>
