<svg width="120" height="41" viewBox="0 0 120 41" fill="none" xmlns="http://www.w3.org/2000/svg">
<rect width="120" height="41" rx="5" fill="black"/>
<ellipse cx="23.5416" cy="20" rx="9.20833" ry="7.58333" fill="white"/>
<path d="M20.6717 18.9412C20.8926 18.7812 20.9992 18.5172 20.9992 18.1541C21.0068 17.9814 20.9713 17.8113 20.8951 17.6564C20.8266 17.532 20.725 17.4279 20.6006 17.3543C20.4716 17.2761 20.3283 17.2243 20.1791 17.202C20.0166 17.1715 19.8516 17.1563 19.6891 17.1588H17.9041V19.1824H19.8363C20.1689 19.185 20.4508 19.1037 20.6717 18.9412ZM20.9713 20.7693C20.7225 20.5789 20.3898 20.485 19.976 20.485H17.899V22.8717H19.9354C20.1258 22.8717 20.301 22.8539 20.4711 22.8184C20.632 22.7869 20.7855 22.7248 20.923 22.6355C21.0525 22.5518 21.1566 22.4375 21.2354 22.2902C21.3115 22.143 21.3496 21.9551 21.3496 21.7291C21.3496 21.2797 21.2227 20.9623 20.9713 20.7693ZM23 8.625C16.7184 8.625 11.625 13.7184 11.625 20C11.625 26.2816 16.7184 31.375 23 31.375C29.2816 31.375 34.375 26.2816 34.375 20C34.375 13.7184 29.2816 8.625 23 8.625ZM25.1963 15.9096H28.7104V16.7652H25.1963V15.9096ZM23 22.9656C22.8356 23.2776 22.6009 23.5471 22.3145 23.7527C22.0148 23.9609 21.6822 24.1133 21.3293 24.2021C20.96 24.3011 20.5791 24.3498 20.1969 24.3469H15.9922V15.6861H20.0801C20.4939 15.6861 20.8697 15.7242 21.2125 15.7953C21.5527 15.8664 21.8422 15.9883 22.0859 16.1533C22.3271 16.3184 22.5176 16.5393 22.6521 16.8135C22.7842 17.0852 22.8527 17.4254 22.8527 17.8291C22.8527 18.2658 22.7537 18.6264 22.5557 18.9184C22.3551 19.2104 22.0656 19.4465 21.6721 19.6318C22.2078 19.7842 22.6014 20.0559 22.8604 20.4367C23.1244 20.8227 23.2539 21.2848 23.2539 21.8281C23.2539 22.2699 23.1701 22.6482 23 22.9656ZM30.0789 21.625H25.5492C25.5492 22.1176 25.7193 22.5898 25.9758 22.8438C26.2348 23.0951 26.6055 23.2221 27.0904 23.2221C27.4408 23.2221 27.7379 23.1332 27.9918 22.958C28.2432 22.7828 28.3955 22.5975 28.4514 22.4045H29.9697C29.726 23.1586 29.3553 23.6969 28.8525 24.0219C28.3549 24.3469 27.7455 24.5094 27.0371 24.5094C26.542 24.5094 26.0977 24.4281 25.699 24.2732C25.3156 24.1234 24.9703 23.8949 24.6859 23.6004C24.4055 23.2979 24.1888 22.9422 24.0486 22.5543C23.8937 22.1252 23.8176 21.6732 23.8227 21.2188C23.8227 20.749 23.9014 20.3123 24.0537 19.9061C24.3457 19.1164 24.9525 18.4842 25.727 18.1566C26.1408 17.984 26.5852 17.8977 27.0346 17.9027C27.5678 17.9027 28.0299 18.0043 28.4311 18.2125C28.8173 18.4113 29.1526 18.6963 29.4111 19.0453C29.6676 19.3932 29.8479 19.7893 29.9621 20.2361C30.0713 20.6754 30.1094 21.1375 30.0789 21.625ZM26.9812 19.1977C26.707 19.1977 26.476 19.2459 26.2982 19.3398C26.1205 19.4338 25.9732 19.5506 25.8615 19.6852C25.7551 19.8151 25.6765 19.9654 25.6305 20.127C25.5898 20.2615 25.5619 20.3986 25.5518 20.5383H28.3574C28.3168 20.099 28.1645 19.774 27.9613 19.5455C27.748 19.3195 27.4053 19.1977 26.9812 19.1977Z" fill="#2354F5"/>
<path d="M38.972 30H42.524C44.336 30 45.38 29.124 45.38 27.624C45.38 26.604 44.912 25.908 43.988 25.608C44.816 25.26 45.248 24.564 45.248 23.592C45.248 22.128 44.192 21.228 42.464 21.228H38.972V30ZM42.332 22.584C43.196 22.584 43.676 22.992 43.676 23.748C43.676 24.528 43.208 24.972 42.368 24.972H40.508V22.584H42.332ZM42.464 26.268C43.316 26.268 43.808 26.688 43.808 27.432C43.808 28.224 43.328 28.644 42.464 28.644H40.508V26.268H42.464ZM49.2244 30.156C50.7724 30.156 51.8524 29.376 52.1044 28.08H50.7484C50.5804 28.644 50.0524 28.956 49.2484 28.956C48.2764 28.956 47.7244 28.428 47.6164 27.384L52.0804 27.372V26.928C52.0804 25.08 50.9524 23.892 49.1764 23.892C47.4364 23.892 46.2244 25.176 46.2244 27.036C46.2244 28.872 47.4604 30.156 49.2244 30.156ZM49.1884 25.092C50.0644 25.092 50.6284 25.632 50.6284 26.448H47.6524C47.7964 25.56 48.3244 25.092 49.1884 25.092ZM54.7161 30V26.76C54.7161 25.872 55.2561 25.224 56.1801 25.224C56.9241 25.224 57.4161 25.704 57.4161 26.7V30H58.8801V26.352C58.8801 24.816 58.1121 23.892 56.6481 23.892C55.7961 23.892 55.1001 24.264 54.7281 24.84V21.072H53.2521V30H54.7161ZM62.0825 30.156C63.0065 30.156 63.8105 29.736 64.0625 29.124L64.1705 30H65.4545V26.4C65.4545 24.756 64.4705 23.892 62.8745 23.892C61.2665 23.892 60.2105 24.732 60.2105 26.016H61.4585C61.4585 25.392 61.9385 25.032 62.8025 25.032C63.5465 25.032 64.0265 25.356 64.0265 26.16V26.292L62.2505 26.424C60.8465 26.532 60.0545 27.216 60.0545 28.308C60.0545 29.424 60.8225 30.156 62.0825 30.156ZM62.5625 29.052C61.9025 29.052 61.5425 28.788 61.5425 28.248C61.5425 27.768 61.8905 27.468 62.8025 27.384L64.0385 27.288V27.6C64.0385 28.512 63.4625 29.052 62.5625 29.052ZM68.3567 30V26.808C68.3567 25.848 68.9087 25.224 69.8087 25.224C70.5647 25.224 71.0567 25.704 71.0567 26.7V30H72.5207V26.352C72.5207 24.816 71.7527 23.892 70.2647 23.892C69.4607 23.892 68.7407 24.24 68.3687 24.84L68.2487 24.072H66.8927V30H68.3567ZM73.6111 27.024C73.6111 28.908 74.7871 30.156 76.5871 30.156C78.1351 30.156 79.2871 29.208 79.4671 27.828H77.9911C77.8351 28.476 77.3191 28.836 76.5871 28.836C75.6511 28.836 75.0751 28.14 75.0751 27.024C75.0751 25.908 75.6991 25.2 76.6351 25.2C77.3311 25.2 77.8231 25.548 77.9911 26.22H79.4551C79.2991 24.792 78.1951 23.892 76.5751 23.892C74.8231 23.892 73.6111 25.188 73.6111 27.024ZM83.2088 30.156C84.7568 30.156 85.8368 29.376 86.0888 28.08H84.7328C84.5648 28.644 84.0368 28.956 83.2328 28.956C82.2608 28.956 81.7088 28.428 81.6008 27.384L86.0648 27.372V26.928C86.0648 25.08 84.9368 23.892 83.1608 23.892C81.4208 23.892 80.2088 25.176 80.2088 27.036C80.2088 28.872 81.4448 30.156 83.2088 30.156ZM83.1728 25.092C84.0488 25.092 84.6128 25.632 84.6128 26.448H81.6368C81.7808 25.56 82.3088 25.092 83.1728 25.092Z" fill="white"/>
<path d="M40.709 12.38C41.444 12.38 42.032 12.73 42.242 13.416H42.788C42.592 12.506 41.773 11.904 40.716 11.904C39.281 11.904 38.301 12.982 38.301 14.515C38.301 16.062 39.281 17.084 40.702 17.084C41.514 17.084 42.144 16.706 42.41 16.209L42.459 17.007H42.858V14.291H40.569V14.739H42.382V14.998C42.382 16.202 41.563 16.608 40.723 16.608C39.596 16.608 38.826 15.817 38.826 14.515C38.826 13.234 39.554 12.38 40.709 12.38ZM47.0739 17V16.538H44.5749V14.711H46.8359V14.256H44.5749V12.45H47.0669V11.988H44.0709V17H47.0739ZM47.5723 12.45H49.1123V17H49.6163V12.45H51.1633V11.988H47.5723V12.45ZM55.8425 17.077C56.9205 17.077 57.7955 16.44 58.0265 15.495H57.4875C57.2705 16.167 56.6405 16.594 55.8495 16.594C54.7505 16.594 54.0155 15.754 54.0155 14.494C54.0155 13.227 54.7505 12.387 55.8495 12.387C56.6335 12.387 57.2495 12.828 57.4595 13.549H57.9985C57.7955 12.555 56.9485 11.904 55.8705 11.904C54.4565 11.904 53.4905 12.954 53.4905 14.494C53.4905 16.034 54.4425 17.077 55.8425 17.077ZM58.734 17L59.224 15.67H61.534L62.024 17H62.549L60.687 11.988H60.064L58.223 17H58.734ZM60.309 12.695C60.337 12.625 60.365 12.534 60.372 12.492C60.379 12.541 60.414 12.625 60.435 12.695L61.373 15.229H59.378L60.309 12.695ZM62.9447 13.29C62.9447 13.976 63.3577 14.424 64.1417 14.613L64.9887 14.823C65.5277 14.949 65.7797 15.243 65.7797 15.691C65.7797 16.265 65.3107 16.622 64.5757 16.622C63.8897 16.622 63.4277 16.279 63.3997 15.754H62.8817C62.9447 16.573 63.6027 17.084 64.5757 17.084C65.6117 17.084 66.2837 16.531 66.2837 15.663C66.2837 14.984 65.8777 14.536 65.0937 14.347L64.2327 14.137C63.7077 14.004 63.4487 13.724 63.4487 13.283C63.4487 12.716 63.9107 12.352 64.6177 12.352C65.2477 12.352 65.6327 12.674 65.6887 13.241H66.1997C66.1227 12.401 65.5277 11.897 64.6247 11.897C63.6167 11.897 62.9447 12.45 62.9447 13.29ZM70.1931 17V16.538H67.6941V14.711H69.9551V14.256H67.6941V12.45H70.1861V11.988H67.1901V17H70.1931ZM72.8568 13.29C72.8568 13.976 73.2698 14.424 74.0538 14.613L74.9008 14.823C75.4398 14.949 75.6918 15.243 75.6918 15.691C75.6918 16.265 75.2228 16.622 74.4878 16.622C73.8018 16.622 73.3398 16.279 73.3118 15.754H72.7938C72.8568 16.573 73.5148 17.084 74.4878 17.084C75.5238 17.084 76.1958 16.531 76.1958 15.663C76.1958 14.984 75.7898 14.536 75.0058 14.347L74.1448 14.137C73.6198 14.004 73.3608 13.724 73.3608 13.283C73.3608 12.716 73.8228 12.352 74.5298 12.352C75.1598 12.352 75.5448 12.674 75.6008 13.241H76.1118C76.0348 12.401 75.4398 11.897 74.5368 11.897C73.5288 11.897 72.8568 12.45 72.8568 13.29ZM76.5088 12.45H78.0488V17H78.5528V12.45H80.0998V11.988H76.5088V12.45ZM80.7586 15.257C80.7586 16.398 81.4586 17.084 82.6206 17.084C83.7616 17.084 84.4616 16.391 84.4616 15.257V11.988H83.9576V15.236C83.9576 16.104 83.4746 16.594 82.6206 16.594C81.7456 16.594 81.2626 16.118 81.2626 15.236V11.988H80.7586V15.257ZM87.1731 17C88.6781 17 89.6791 15.992 89.6791 14.494C89.6791 12.996 88.6711 11.988 87.1591 11.988H85.6471V17H87.1731ZM87.1381 12.45C88.3771 12.45 89.1611 13.241 89.1611 14.494C89.1611 15.74 88.3771 16.538 87.1521 16.538H86.1511V12.45H87.1381ZM91.4302 14.907V17H91.9342V14.907L93.6142 11.988H93.0612L91.8362 14.151C91.7452 14.326 91.7452 14.326 91.6822 14.452C91.6332 14.34 91.5912 14.256 91.5352 14.151L90.2962 11.988H89.7292L91.4302 14.907ZM100.702 14.494C100.702 12.968 99.722 11.897 98.315 11.897C96.915 11.897 95.928 12.975 95.928 14.494C95.928 16.013 96.908 17.084 98.315 17.084C99.715 17.084 100.702 16.013 100.702 14.494ZM100.184 14.494C100.184 15.74 99.421 16.601 98.315 16.601C97.209 16.601 96.453 15.747 96.453 14.494C96.453 13.241 97.209 12.387 98.315 12.387C99.421 12.387 100.184 13.241 100.184 14.494ZM102.12 17V12.828L104.885 17H105.382V11.988H104.885V16.16L102.127 11.988H101.616V17H102.12Z" fill="white"/>
</svg>
