<svg width="140" height="47" viewBox="0 0 140 47" fill="none" xmlns="http://www.w3.org/2000/svg">
<g clip-path="url(#clip0_47_1104)">
<rect width="140" height="47" rx="5" fill="black"/>
<ellipse cx="26.1875" cy="23.5" rx="11.6875" ry="9.625" fill="white"/>
<path d="M22.5448 22.1562C22.8252 21.9531 22.9605 21.618 22.9605 21.1571C22.9702 20.938 22.9251 20.7221 22.8284 20.5255C22.7414 20.3676 22.6125 20.2354 22.4546 20.142C22.2909 20.0427 22.109 19.977 21.9196 19.9486C21.7134 19.91 21.5039 19.8906 21.2977 19.8938H19.0321V22.4623H21.4846C21.9067 22.4655 22.2645 22.3624 22.5448 22.1562ZM22.9251 24.4765C22.6093 24.2348 22.1871 24.1155 21.6618 24.1155H19.0257V27.1448H21.6103C21.852 27.1448 22.0743 27.1223 22.2902 27.0771C22.4945 27.0372 22.6893 26.9584 22.8639 26.8451C23.0282 26.7388 23.1604 26.5938 23.2603 26.4068C23.3569 26.2199 23.4053 25.9814 23.4053 25.6946C23.4053 25.1242 23.2441 24.7214 22.9251 24.4765ZM25.5 9.0625C17.5271 9.0625 11.0625 15.5271 11.0625 23.5C11.0625 31.4729 17.5271 37.9375 25.5 37.9375C33.4729 37.9375 39.9375 31.4729 39.9375 23.5C39.9375 15.5271 33.4729 9.0625 25.5 9.0625ZM28.2876 18.3083H32.7478V19.3943H28.2876V18.3083ZM25.5 27.2641C25.2914 27.6601 24.9935 28.0021 24.6299 28.2631C24.2496 28.5273 23.8274 28.7207 23.3795 28.8335C22.9108 28.9591 22.4274 29.0209 21.9422 29.0172H16.6055V18.0247H21.7939C22.3192 18.0247 22.7962 18.073 23.2313 18.1633C23.6631 18.2535 24.0305 18.4082 24.3398 18.6177C24.646 18.8271 24.8877 19.1075 25.0585 19.4556C25.2261 19.8004 25.3131 20.2322 25.3131 20.7446C25.3131 21.2989 25.1874 21.7565 24.936 22.1271C24.6814 22.4978 24.3141 22.7975 23.8146 23.0327C24.4945 23.2261 24.994 23.5709 25.3228 24.0543C25.6579 24.5441 25.8223 25.1307 25.8223 25.8203C25.8223 26.3811 25.7159 26.8612 25.5 27.2641ZM34.4848 25.5625H28.7355C28.7355 26.1877 28.9515 26.7871 29.277 27.1094C29.6057 27.4284 30.0762 27.5896 30.6917 27.5896C31.1364 27.5896 31.5135 27.4768 31.8357 27.2544C32.1548 27.032 32.3481 26.7968 32.419 26.5519H34.3462C34.0368 27.509 33.5663 28.1922 32.9282 28.6047C32.2966 29.0172 31.5231 29.2234 30.624 29.2234C29.9956 29.2234 29.4316 29.1203 28.9257 28.9237C28.4391 28.7336 28.0008 28.4436 27.6398 28.0697C27.284 27.6858 27.0089 27.2343 26.831 26.742C26.6344 26.1974 26.5377 25.6237 26.5441 25.0469C26.5441 24.4507 26.644 23.8964 26.8374 23.3808C27.208 22.3785 27.9782 21.5761 28.9611 21.1604C29.4864 20.9412 30.0504 20.8316 30.6208 20.8381C31.2976 20.8381 31.8841 20.967 32.3933 21.2313C32.8834 21.4836 33.3091 21.8452 33.6372 22.2883C33.9627 22.7298 34.1915 23.2325 34.3365 23.7997C34.4751 24.3572 34.5234 24.9437 34.4848 25.5625ZM30.5531 22.4816C30.2051 22.4816 29.9118 22.5429 29.6862 22.6621C29.4606 22.7813 29.2737 22.9296 29.1319 23.1004C28.9969 23.2653 28.8971 23.4561 28.8387 23.6611C28.7871 23.8319 28.7517 24.006 28.7388 24.1832H32.2998C32.2482 23.6257 32.0549 23.2132 31.7971 22.9231C31.5264 22.6363 31.0913 22.4816 30.5531 22.4816Z" fill="#2354F5"/>
<path d="M50.377 36H55.409C57.976 36 59.455 34.759 59.455 32.634C59.455 31.189 58.792 30.203 57.483 29.778C58.656 29.285 59.268 28.299 59.268 26.922C59.268 24.848 57.772 23.573 55.324 23.573H50.377V36ZM55.137 25.494C56.361 25.494 57.041 26.072 57.041 27.143C57.041 28.248 56.378 28.877 55.188 28.877H52.553V25.494H55.137ZM55.324 30.713C56.531 30.713 57.228 31.308 57.228 32.362C57.228 33.484 56.548 34.079 55.324 34.079H52.553V30.713H55.324ZM64.9012 36.221C67.0942 36.221 68.6242 35.116 68.9812 33.28H67.0602C66.8222 34.079 66.0742 34.521 64.9352 34.521C63.5582 34.521 62.7762 33.773 62.6232 32.294L68.9472 32.277V31.648C68.9472 29.03 67.3492 27.347 64.8332 27.347C62.3682 27.347 60.6512 29.166 60.6512 31.801C60.6512 34.402 62.4022 36.221 64.9012 36.221ZM64.8502 29.047C66.0912 29.047 66.8902 29.812 66.8902 30.968H62.6742C62.8782 29.71 63.6262 29.047 64.8502 29.047ZM72.6811 36V31.41C72.6811 30.152 73.4461 29.234 74.7551 29.234C75.8091 29.234 76.5061 29.914 76.5061 31.325V36H78.5801V30.832C78.5801 28.656 77.4921 27.347 75.4181 27.347C74.2111 27.347 73.2251 27.874 72.6981 28.69V23.352H70.6071V36H72.6811ZM83.1169 36.221C84.4259 36.221 85.5649 35.626 85.9219 34.759L86.0749 36H87.8939V30.9C87.8939 28.571 86.4999 27.347 84.2389 27.347C81.9609 27.347 80.4649 28.537 80.4649 30.356H82.2329C82.2329 29.472 82.9129 28.962 84.1369 28.962C85.1909 28.962 85.8709 29.421 85.8709 30.56V30.747L83.3549 30.934C81.3659 31.087 80.2439 32.056 80.2439 33.603C80.2439 35.184 81.3319 36.221 83.1169 36.221ZM83.7969 34.657C82.8619 34.657 82.3519 34.283 82.3519 33.518C82.3519 32.838 82.8449 32.413 84.1369 32.294L85.8879 32.158V32.6C85.8879 33.892 85.0719 34.657 83.7969 34.657ZM92.0054 36V31.478C92.0054 30.118 92.7874 29.234 94.0624 29.234C95.1334 29.234 95.8304 29.914 95.8304 31.325V36H97.9044V30.832C97.9044 28.656 96.8164 27.347 94.7084 27.347C93.5694 27.347 92.5494 27.84 92.0224 28.69L91.8524 27.602H89.9314V36H92.0054ZM99.4491 31.784C99.4491 34.453 101.115 36.221 103.665 36.221C105.858 36.221 107.49 34.878 107.745 32.923H105.654C105.433 33.841 104.702 34.351 103.665 34.351C102.339 34.351 101.523 33.365 101.523 31.784C101.523 30.203 102.407 29.2 103.733 29.2C104.719 29.2 105.416 29.693 105.654 30.645H107.728C107.507 28.622 105.943 27.347 103.648 27.347C101.166 27.347 99.4491 29.183 99.4491 31.784ZM113.046 36.221C115.239 36.221 116.769 35.116 117.126 33.28H115.205C114.967 34.079 114.219 34.521 113.08 34.521C111.703 34.521 110.921 33.773 110.768 32.294L117.092 32.277V31.648C117.092 29.03 115.494 27.347 112.978 27.347C110.513 27.347 108.796 29.166 108.796 31.801C108.796 34.402 110.547 36.221 113.046 36.221ZM112.995 29.047C114.236 29.047 115.035 29.812 115.035 30.968H110.819C111.023 29.71 111.771 29.047 112.995 29.047Z" fill="white"/>
<path d="M51.709 11.38C52.444 11.38 53.032 11.73 53.242 12.416H53.788C53.592 11.506 52.773 10.904 51.716 10.904C50.281 10.904 49.301 11.982 49.301 13.515C49.301 15.062 50.281 16.084 51.702 16.084C52.514 16.084 53.144 15.706 53.41 15.209L53.459 16.007H53.858V13.291H51.569V13.739H53.382V13.998C53.382 15.202 52.563 15.608 51.723 15.608C50.596 15.608 49.826 14.817 49.826 13.515C49.826 12.234 50.554 11.38 51.709 11.38ZM58.0739 16V15.538H55.5749V13.711H57.8359V13.256H55.5749V11.45H58.0669V10.988H55.0709V16H58.0739ZM58.5723 11.45H60.1123V16H60.6163V11.45H62.1633V10.988H58.5723V11.45ZM66.8425 16.077C67.9205 16.077 68.7955 15.44 69.0265 14.495H68.4875C68.2705 15.167 67.6405 15.594 66.8495 15.594C65.7505 15.594 65.0155 14.754 65.0155 13.494C65.0155 12.227 65.7505 11.387 66.8495 11.387C67.6335 11.387 68.2495 11.828 68.4595 12.549H68.9985C68.7955 11.555 67.9485 10.904 66.8705 10.904C65.4565 10.904 64.4905 11.954 64.4905 13.494C64.4905 15.034 65.4425 16.077 66.8425 16.077ZM69.734 16L70.224 14.67H72.534L73.024 16H73.549L71.687 10.988H71.064L69.223 16H69.734ZM71.309 11.695C71.337 11.625 71.365 11.534 71.372 11.492C71.379 11.541 71.414 11.625 71.435 11.695L72.373 14.229H70.378L71.309 11.695ZM73.9447 12.29C73.9447 12.976 74.3577 13.424 75.1417 13.613L75.9887 13.823C76.5277 13.949 76.7797 14.243 76.7797 14.691C76.7797 15.265 76.3107 15.622 75.5757 15.622C74.8897 15.622 74.4277 15.279 74.3997 14.754H73.8817C73.9447 15.573 74.6027 16.084 75.5757 16.084C76.6117 16.084 77.2837 15.531 77.2837 14.663C77.2837 13.984 76.8777 13.536 76.0937 13.347L75.2327 13.137C74.7077 13.004 74.4487 12.724 74.4487 12.283C74.4487 11.716 74.9107 11.352 75.6177 11.352C76.2477 11.352 76.6327 11.674 76.6887 12.241H77.1997C77.1227 11.401 76.5277 10.897 75.6247 10.897C74.6167 10.897 73.9447 11.45 73.9447 12.29ZM81.1931 16V15.538H78.6941V13.711H80.9551V13.256H78.6941V11.45H81.1861V10.988H78.1901V16H81.1931ZM83.8568 12.29C83.8568 12.976 84.2698 13.424 85.0538 13.613L85.9008 13.823C86.4398 13.949 86.6918 14.243 86.6918 14.691C86.6918 15.265 86.2228 15.622 85.4878 15.622C84.8018 15.622 84.3398 15.279 84.3118 14.754H83.7938C83.8568 15.573 84.5148 16.084 85.4878 16.084C86.5238 16.084 87.1958 15.531 87.1958 14.663C87.1958 13.984 86.7898 13.536 86.0058 13.347L85.1448 13.137C84.6198 13.004 84.3608 12.724 84.3608 12.283C84.3608 11.716 84.8228 11.352 85.5298 11.352C86.1598 11.352 86.5448 11.674 86.6008 12.241H87.1118C87.0348 11.401 86.4398 10.897 85.5368 10.897C84.5288 10.897 83.8568 11.45 83.8568 12.29ZM87.5088 11.45H89.0488V16H89.5528V11.45H91.0998V10.988H87.5088V11.45ZM91.7586 14.257C91.7586 15.398 92.4586 16.084 93.6206 16.084C94.7616 16.084 95.4616 15.391 95.4616 14.257V10.988H94.9576V14.236C94.9576 15.104 94.4746 15.594 93.6206 15.594C92.7456 15.594 92.2626 15.118 92.2626 14.236V10.988H91.7586V14.257ZM98.1731 16C99.6781 16 100.679 14.992 100.679 13.494C100.679 11.996 99.6711 10.988 98.1591 10.988H96.6471V16H98.1731ZM98.1381 11.45C99.3771 11.45 100.161 12.241 100.161 13.494C100.161 14.74 99.3771 15.538 98.1521 15.538H97.1511V11.45H98.1381ZM102.43 13.907V16H102.934V13.907L104.614 10.988H104.061L102.836 13.151C102.745 13.326 102.745 13.326 102.682 13.452C102.633 13.34 102.591 13.256 102.535 13.151L101.296 10.988H100.729L102.43 13.907ZM111.702 13.494C111.702 11.968 110.722 10.897 109.315 10.897C107.915 10.897 106.928 11.975 106.928 13.494C106.928 15.013 107.908 16.084 109.315 16.084C110.715 16.084 111.702 15.013 111.702 13.494ZM111.184 13.494C111.184 14.74 110.421 15.601 109.315 15.601C108.209 15.601 107.453 14.747 107.453 13.494C107.453 12.241 108.209 11.387 109.315 11.387C110.421 11.387 111.184 12.241 111.184 13.494ZM113.12 16V11.828L115.885 16H116.382V10.988H115.885V15.16L113.127 10.988H112.616V16H113.12Z" fill="white"/>
</g>
<defs>
<clipPath id="clip0_47_1104">
<rect width="140" height="47" rx="5" fill="white"/>
</clipPath>
</defs>
</svg>
