<svg width="140" height="47" viewBox="0 0 140 47" fill="none" xmlns="http://www.w3.org/2000/svg">
<rect width="140" height="47" rx="5" fill="black"/>
<path d="M57.177 30.917V28.962H52.553V25.579H58.061V23.573H50.377V36H52.553V30.917H57.177ZM60.7535 25.919C61.4335 25.919 61.9945 25.358 61.9945 24.661C61.9945 23.964 61.4335 23.42 60.7535 23.42C60.0395 23.42 59.4785 23.964 59.4785 24.661C59.4785 25.358 60.0395 25.919 60.7535 25.919ZM59.7165 36H61.7905V27.602H59.7165V36ZM63.4573 31.614C63.4573 34.045 65.0213 35.83 67.4013 35.83C68.6083 35.83 69.6453 35.337 70.1723 34.555V35.949C70.1723 37.343 69.2543 38.244 67.8263 38.244C66.5513 38.244 65.7183 37.598 65.5823 36.51H63.5083C63.7633 38.754 65.4123 40.131 67.8263 40.131C70.5463 40.131 72.2293 38.38 72.2293 35.575V27.602H70.3083L70.1893 28.758C69.6963 27.857 68.7103 27.33 67.4523 27.33C65.0553 27.33 63.4573 29.166 63.4573 31.614ZM65.5483 31.563C65.5483 30.186 66.4323 29.149 67.8093 29.149C69.2543 29.149 70.1213 30.135 70.1213 31.563C70.1213 33.025 69.2373 34.028 67.8093 34.028C66.4493 34.028 65.5483 32.974 65.5483 31.563ZM76.4497 36V31.24C76.4497 29.88 77.2487 29.234 78.2347 29.234C79.2207 29.234 79.8497 29.863 79.8497 31.036V36H81.9237V31.24C81.9237 29.863 82.6887 29.217 83.6917 29.217C84.6777 29.217 85.3237 29.846 85.3237 31.053V36H87.3807V30.509C87.3807 28.571 86.2587 27.347 84.2187 27.347C82.9437 27.347 81.9577 27.976 81.5327 28.945C81.0907 27.976 80.2067 27.347 78.9317 27.347C77.7247 27.347 76.8747 27.891 76.4497 28.588L76.2797 27.602H74.3757V36H76.4497ZM91.9157 36.221C93.2247 36.221 94.3637 35.626 94.7207 34.759L94.8737 36H96.6927V30.9C96.6927 28.571 95.2987 27.347 93.0377 27.347C90.7597 27.347 89.2637 28.537 89.2637 30.356H91.0317C91.0317 29.472 91.7117 28.962 92.9357 28.962C93.9897 28.962 94.6697 29.421 94.6697 30.56V30.747L92.1537 30.934C90.1647 31.087 89.0427 32.056 89.0427 33.603C89.0427 35.184 90.1307 36.221 91.9157 36.221ZM92.5957 34.657C91.6607 34.657 91.1507 34.283 91.1507 33.518C91.1507 32.838 91.6437 32.413 92.9357 32.294L94.6867 32.158V32.6C94.6867 33.892 93.8707 34.657 92.5957 34.657Z" fill="white"/>
<path d="M51.709 11.38C52.444 11.38 53.032 11.73 53.242 12.416H53.788C53.592 11.506 52.773 10.904 51.716 10.904C50.281 10.904 49.301 11.982 49.301 13.515C49.301 15.062 50.281 16.084 51.702 16.084C52.514 16.084 53.144 15.706 53.41 15.209L53.459 16.007H53.858V13.291H51.569V13.739H53.382V13.998C53.382 15.202 52.563 15.608 51.723 15.608C50.596 15.608 49.826 14.817 49.826 13.515C49.826 12.234 50.554 11.38 51.709 11.38ZM58.0739 16V15.538H55.5749V13.711H57.8359V13.256H55.5749V11.45H58.0669V10.988H55.0709V16H58.0739ZM58.5723 11.45H60.1123V16H60.6163V11.45H62.1633V10.988H58.5723V11.45ZM66.3245 16C67.8295 16 68.8305 14.992 68.8305 13.494C68.8305 11.996 67.8225 10.988 66.3105 10.988H64.7985V16H66.3245ZM66.2895 11.45C67.5285 11.45 68.3125 12.241 68.3125 13.494C68.3125 14.74 67.5285 15.538 66.3035 15.538H65.3025V11.45H66.2895ZM72.7438 16V15.538H70.2448V13.711H72.5058V13.256H70.2448V11.45H72.7368V10.988H69.7408V16H72.7438ZM73.4662 12.29C73.4662 12.976 73.8792 13.424 74.6632 13.613L75.5102 13.823C76.0492 13.949 76.3012 14.243 76.3012 14.691C76.3012 15.265 75.8322 15.622 75.0972 15.622C74.4112 15.622 73.9492 15.279 73.9212 14.754H73.4032C73.4662 15.573 74.1242 16.084 75.0972 16.084C76.1332 16.084 76.8052 15.531 76.8052 14.663C76.8052 13.984 76.3992 13.536 75.6152 13.347L74.7542 13.137C74.2292 13.004 73.9702 12.724 73.9702 12.283C73.9702 11.716 74.4322 11.352 75.1392 11.352C75.7692 11.352 76.1542 11.674 76.2102 12.241H76.7212C76.6442 11.401 76.0492 10.897 75.1462 10.897C74.1382 10.897 73.4662 11.45 73.4662 12.29ZM78.2155 10.988H77.7115V16H78.2155V10.988ZM81.5342 11.38C82.2692 11.38 82.8572 11.73 83.0672 12.416H83.6132C83.4172 11.506 82.5982 10.904 81.5412 10.904C80.1062 10.904 79.1262 11.982 79.1262 13.515C79.1262 15.062 80.1062 16.084 81.5272 16.084C82.3392 16.084 82.9692 15.706 83.2352 15.209L83.2842 16.007H83.6832V13.291H81.3942V13.739H83.2072V13.998C83.2072 15.202 82.3882 15.608 81.5482 15.608C80.4212 15.608 79.6512 14.817 79.6512 13.515C79.6512 12.234 80.3792 11.38 81.5342 11.38ZM85.1882 16V11.828L87.9532 16H88.4502V10.988H87.9532V15.16L85.1952 10.988H84.6842V16H85.1882ZM96.0818 13.494C96.0818 11.968 95.1018 10.897 93.6948 10.897C92.2948 10.897 91.3078 11.975 91.3078 13.494C91.3078 15.013 92.2878 16.084 93.6948 16.084C95.0948 16.084 96.0818 15.013 96.0818 13.494ZM95.5638 13.494C95.5638 14.74 94.8008 15.601 93.6948 15.601C92.5888 15.601 91.8328 14.747 91.8328 13.494C91.8328 12.241 92.5888 11.387 93.6948 11.387C94.8008 11.387 95.5638 12.241 95.5638 13.494ZM97.4997 16V11.828L100.265 16H100.762V10.988H100.265V15.16L97.5067 10.988H96.9957V16H97.4997Z" fill="white"/>
<g clip-path="url(#clip0_49_1079)">
<path d="M25 37C27.76 37 30 34.9093 30 32.3333V27.6667H25C22.24 27.6667 20 29.7573 20 32.3333C20 34.9093 22.24 37 25 37Z" fill="#0ACF83"/>
<path d="M20 23C20 20.424 22.24 18.3333 25 18.3333H30V27.6667H25C22.24 27.6667 20 25.576 20 23Z" fill="#A259FF"/>
<path d="M20 13.6667C20 11.0907 22.24 9 25 9H30V18.3333H25C22.24 18.3333 20 16.2427 20 13.6667Z" fill="#F24E1E"/>
<path d="M30 9H35C37.76 9 40 11.0907 40 13.6667C40 16.2427 37.76 18.3333 35 18.3333H30V9Z" fill="#FF7262"/>
<path d="M40 23C40 25.576 37.76 27.6667 35 27.6667C32.24 27.6667 30 25.576 30 23C30 20.424 32.24 18.3333 35 18.3333C37.76 18.3333 40 20.424 40 23Z" fill="#1ABCFE"/>
</g>
<defs>
<clipPath id="clip0_49_1079">
<rect width="20" height="28" fill="white" transform="translate(20 9)"/>
</clipPath>
</defs>
</svg>
