<svg width="140" height="47" viewBox="0 0 140 47" fill="none" xmlns="http://www.w3.org/2000/svg">
<rect width="140" height="47" rx="5" fill="black"/>
<path d="M57.177 30.917V28.962H52.553V25.579H58.061V23.573H50.377V36H52.553V30.917H57.177ZM60.7535 25.919C61.4335 25.919 61.9945 25.358 61.9945 24.661C61.9945 23.964 61.4335 23.42 60.7535 23.42C60.0395 23.42 59.4785 23.964 59.4785 24.661C59.4785 25.358 60.0395 25.919 60.7535 25.919ZM59.7165 36H61.7905V27.602H59.7165V36ZM63.4573 31.614C63.4573 34.045 65.0213 35.83 67.4013 35.83C68.6083 35.83 69.6453 35.337 70.1723 34.555V35.949C70.1723 37.343 69.2543 38.244 67.8263 38.244C66.5513 38.244 65.7183 37.598 65.5823 36.51H63.5083C63.7633 38.754 65.4123 40.131 67.8263 40.131C70.5463 40.131 72.2293 38.38 72.2293 35.575V27.602H70.3083L70.1893 28.758C69.6963 27.857 68.7103 27.33 67.4523 27.33C65.0553 27.33 63.4573 29.166 63.4573 31.614ZM65.5483 31.563C65.5483 30.186 66.4323 29.149 67.8093 29.149C69.2543 29.149 70.1213 30.135 70.1213 31.563C70.1213 33.025 69.2373 34.028 67.8093 34.028C66.4493 34.028 65.5483 32.974 65.5483 31.563ZM76.4497 36V31.24C76.4497 29.88 77.2487 29.234 78.2347 29.234C79.2207 29.234 79.8497 29.863 79.8497 31.036V36H81.9237V31.24C81.9237 29.863 82.6887 29.217 83.6917 29.217C84.6777 29.217 85.3237 29.846 85.3237 31.053V36H87.3807V30.509C87.3807 28.571 86.2587 27.347 84.2187 27.347C82.9437 27.347 81.9577 27.976 81.5327 28.945C81.0907 27.976 80.2067 27.347 78.9317 27.347C77.7247 27.347 76.8747 27.891 76.4497 28.588L76.2797 27.602H74.3757V36H76.4497ZM91.9157 36.221C93.2247 36.221 94.3637 35.626 94.7207 34.759L94.8737 36H96.6927V30.9C96.6927 28.571 95.2987 27.347 93.0377 27.347C90.7597 27.347 89.2637 28.537 89.2637 30.356H91.0317C91.0317 29.472 91.7117 28.962 92.9357 28.962C93.9897 28.962 94.6697 29.421 94.6697 30.56V30.747L92.1537 30.934C90.1647 31.087 89.0427 32.056 89.0427 33.603C89.0427 35.184 90.1307 36.221 91.9157 36.221ZM92.5957 34.657C91.6607 34.657 91.1507 34.283 91.1507 33.518C91.1507 32.838 91.6437 32.413 92.9357 32.294L94.6867 32.158V32.6C94.6867 33.892 93.8707 34.657 92.5957 34.657Z" fill="white"/>
<path d="M52.546 11.213C53.41 11.213 54.13 11.627 54.373 12.455H55.309C55.093 11.204 53.986 10.385 52.564 10.385C50.647 10.385 49.369 11.789 49.369 13.769C49.369 15.776 50.638 17.108 52.483 17.108C53.437 17.108 54.229 16.694 54.58 16.127L54.643 17.009H55.381V13.418H52.375V14.201H54.553V14.39C54.553 15.704 53.662 16.271 52.555 16.271C51.214 16.271 50.296 15.362 50.296 13.787C50.296 12.248 51.142 11.213 52.546 11.213ZM60.8793 17V16.181H57.7923V14.12H60.5733V13.337H57.7923V11.303H60.8793V10.493H56.9103V17H60.8793ZM61.5274 11.303H63.4894V17H64.3714V11.303H66.3244V10.493H61.5274V11.303ZM71.823 17C73.749 17 75.045 15.686 75.045 13.751C75.045 11.807 73.731 10.493 71.787 10.493H69.672V17H71.823ZM71.724 11.303C73.209 11.303 74.127 12.239 74.127 13.751C74.127 15.245 73.209 16.181 71.76 16.181H70.554V11.303H71.724ZM80.1361 17V16.181H77.0491V14.12H79.8301V13.337H77.0491V11.303H80.1361V10.493H76.1671V17H80.1361ZM81.0362 12.248C81.0362 13.184 81.5852 13.796 82.6472 14.039L83.7182 14.282C84.3392 14.426 84.6182 14.75 84.6182 15.263C84.6182 15.911 84.0692 16.316 83.2052 16.316C82.3862 16.316 81.8642 15.92 81.8462 15.299H80.9462C81.0002 16.415 81.8822 17.108 83.2052 17.108C84.5912 17.108 85.5002 16.361 85.5002 15.191C85.5002 14.273 84.9602 13.697 83.8982 13.454L82.8272 13.202C82.2152 13.058 81.9182 12.743 81.9182 12.221C81.9182 11.582 82.4492 11.168 83.2682 11.168C83.9972 11.168 84.4562 11.546 84.5012 12.194H85.3922C85.3202 11.069 84.5192 10.376 83.2772 10.376C81.9362 10.376 81.0362 11.132 81.0362 12.248ZM87.4905 10.493H86.6085V17H87.4905V10.493ZM91.798 11.213C92.662 11.213 93.382 11.627 93.625 12.455H94.561C94.345 11.204 93.238 10.385 91.816 10.385C89.899 10.385 88.621 11.789 88.621 13.769C88.621 15.776 89.89 17.108 91.735 17.108C92.689 17.108 93.481 16.694 93.832 16.127L93.895 17.009H94.633V13.418H91.627V14.201H93.805V14.39C93.805 15.704 92.914 16.271 91.807 16.271C90.466 16.271 89.548 15.362 89.548 13.787C89.548 12.248 90.394 11.213 91.798 11.213ZM96.7718 17V11.969L100.102 17H100.984V10.493H100.102V15.524L96.7718 10.493H95.8898V17H96.7718ZM110.828 13.742C110.828 11.762 109.541 10.376 107.696 10.376C105.86 10.376 104.573 11.771 104.573 13.742C104.573 15.722 105.851 17.108 107.687 17.108C109.532 17.108 110.828 15.722 110.828 13.742ZM109.901 13.742C109.901 15.245 109.019 16.262 107.696 16.262C106.373 16.262 105.5 15.254 105.5 13.742C105.5 12.23 106.373 11.231 107.696 11.231C109.019 11.231 109.901 12.23 109.901 13.742ZM112.838 17V11.969L116.168 17H117.05V10.493H116.168V15.524L112.838 10.493H111.956V17H112.838Z" fill="white"/>
<g clip-path="url(#clip0_49_1079)">
<path d="M25 37C27.76 37 30 34.984 30 32.5V28H25C22.24 28 20 30.016 20 32.5C20 34.984 22.24 37 25 37Z" fill="#0ACF83"/>
<path d="M20 23.5C20 21.016 22.24 19 25 19H30V28H25C22.24 28 20 25.984 20 23.5Z" fill="#A259FF"/>
<path d="M20 14.5C20 12.016 22.24 10 25 10H30V19H25C22.24 19 20 16.984 20 14.5Z" fill="#F24E1E"/>
<path d="M30 10H35C37.76 10 40 12.016 40 14.5C40 16.984 37.76 19 35 19H30V10Z" fill="#FF7262"/>
<path d="M40 23.5C40 25.984 37.76 28 35 28C32.24 28 30 25.984 30 23.5C30 21.016 32.24 19 35 19C37.76 19 40 21.016 40 23.5Z" fill="#1ABCFE"/>
</g>
<defs>
<clipPath id="clip0_49_1079">
<rect width="20" height="27" fill="white" transform="translate(20 10)"/>
</clipPath>
</defs>
</svg>
