<svg width="104" height="41" viewBox="0 0 104 41" fill="none" xmlns="http://www.w3.org/2000/svg">
<rect width="104" height="41" rx="5" fill="black"/>
<g clip-path="url(#clip0_47_1105)">
<path d="M17 31C19.208 31 21 29.5066 21 27.6666V24.3333H17C14.792 24.3333 13 25.8266 13 27.6666C13 29.5066 14.792 31 17 31Z" fill="#0ACF83"/>
<path d="M13 21C13 19.16 14.792 17.6667 17 17.6667H21V24.3334H17C14.792 24.3334 13 22.84 13 21Z" fill="#A259FF"/>
<path d="M13 14.3333C13 12.4933 14.792 11 17 11H21V17.6667H17C14.792 17.6667 13 16.1733 13 14.3333Z" fill="#F24E1E"/>
<path d="M21 11H25C27.208 11 29 12.4933 29 14.3333C29 16.1733 27.208 17.6667 25 17.6667H21V11Z" fill="#FF7262"/>
<path d="M29 21C29 22.84 27.208 24.3334 25 24.3334C22.792 24.3334 21 22.84 21 21C21 19.16 22.792 17.6667 25 17.6667C27.208 17.6667 29 19.16 29 21Z" fill="#1ABCFE"/>
</g>
<path d="M41.772 26.412V25.032H38.508V22.644H42.396V21.228H36.972V30H38.508V26.412H41.772ZM44.2966 22.884C44.7766 22.884 45.1726 22.488 45.1726 21.996C45.1726 21.504 44.7766 21.12 44.2966 21.12C43.7926 21.12 43.3966 21.504 43.3966 21.996C43.3966 22.488 43.7926 22.884 44.2966 22.884ZM43.5646 30H45.0286V24.072H43.5646V30ZM46.2052 26.904C46.2052 28.62 47.3092 29.88 48.9892 29.88C49.8412 29.88 50.5732 29.532 50.9452 28.98V29.964C50.9452 30.948 50.2972 31.584 49.2892 31.584C48.3892 31.584 47.8012 31.128 47.7052 30.36H46.2412C46.4212 31.944 47.5852 32.916 49.2892 32.916C51.2092 32.916 52.3972 31.68 52.3972 29.7V24.072H51.0412L50.9572 24.888C50.6092 24.252 49.9132 23.88 49.0252 23.88C47.3332 23.88 46.2052 25.176 46.2052 26.904ZM47.6812 26.868C47.6812 25.896 48.3052 25.164 49.2772 25.164C50.2972 25.164 50.9092 25.86 50.9092 26.868C50.9092 27.9 50.2852 28.608 49.2772 28.608C48.3172 28.608 47.6812 27.864 47.6812 26.868ZM55.3763 30V26.64C55.3763 25.68 55.9403 25.224 56.6363 25.224C57.3323 25.224 57.7763 25.668 57.7763 26.496V30H59.2403V26.64C59.2403 25.668 59.7803 25.212 60.4883 25.212C61.1843 25.212 61.6403 25.656 61.6403 26.508V30H63.0923V26.124C63.0923 24.756 62.3003 23.892 60.8603 23.892C59.9603 23.892 59.2643 24.336 58.9643 25.02C58.6523 24.336 58.0283 23.892 57.1283 23.892C56.2763 23.892 55.6763 24.276 55.3763 24.768L55.2563 24.072H53.9123V30H55.3763ZM66.2934 30.156C67.2174 30.156 68.0214 29.736 68.2734 29.124L68.3814 30H69.6654V26.4C69.6654 24.756 68.6814 23.892 67.0854 23.892C65.4774 23.892 64.4214 24.732 64.4214 26.016H65.6694C65.6694 25.392 66.1494 25.032 67.0134 25.032C67.7574 25.032 68.2374 25.356 68.2374 26.16V26.292L66.4614 26.424C65.0574 26.532 64.2654 27.216 64.2654 28.308C64.2654 29.424 65.0334 30.156 66.2934 30.156ZM66.7734 29.052C66.1134 29.052 65.7534 28.788 65.7534 28.248C65.7534 27.768 66.1014 27.468 67.0134 27.384L68.2494 27.288V27.6C68.2494 28.512 67.6734 29.052 66.7734 29.052Z" fill="white"/>
<path d="M38.709 12.38C39.444 12.38 40.032 12.73 40.242 13.416H40.788C40.592 12.506 39.773 11.904 38.716 11.904C37.281 11.904 36.301 12.982 36.301 14.515C36.301 16.062 37.281 17.084 38.702 17.084C39.514 17.084 40.144 16.706 40.41 16.209L40.459 17.007H40.858V14.291H38.569V14.739H40.382V14.998C40.382 16.202 39.563 16.608 38.723 16.608C37.596 16.608 36.826 15.817 36.826 14.515C36.826 13.234 37.554 12.38 38.709 12.38ZM45.0739 17V16.538H42.5749V14.711H44.8359V14.256H42.5749V12.45H45.0669V11.988H42.0709V17H45.0739ZM45.5723 12.45H47.1123V17H47.6163V12.45H49.1633V11.988H45.5723V12.45ZM53.3245 17C54.8295 17 55.8305 15.992 55.8305 14.494C55.8305 12.996 54.8225 11.988 53.3105 11.988H51.7985V17H53.3245ZM53.2895 12.45C54.5285 12.45 55.3125 13.241 55.3125 14.494C55.3125 15.74 54.5285 16.538 53.3035 16.538H52.3025V12.45H53.2895ZM59.7438 17V16.538H57.2448V14.711H59.5058V14.256H57.2448V12.45H59.7368V11.988H56.7408V17H59.7438ZM60.4662 13.29C60.4662 13.976 60.8792 14.424 61.6632 14.613L62.5102 14.823C63.0492 14.949 63.3012 15.243 63.3012 15.691C63.3012 16.265 62.8322 16.622 62.0972 16.622C61.4112 16.622 60.9492 16.279 60.9212 15.754H60.4032C60.4662 16.573 61.1242 17.084 62.0972 17.084C63.1332 17.084 63.8052 16.531 63.8052 15.663C63.8052 14.984 63.3992 14.536 62.6152 14.347L61.7542 14.137C61.2292 14.004 60.9702 13.724 60.9702 13.283C60.9702 12.716 61.4322 12.352 62.1392 12.352C62.7692 12.352 63.1542 12.674 63.2102 13.241H63.7212C63.6442 12.401 63.0492 11.897 62.1462 11.897C61.1382 11.897 60.4662 12.45 60.4662 13.29ZM65.2155 11.988H64.7115V17H65.2155V11.988ZM68.5342 12.38C69.2692 12.38 69.8572 12.73 70.0672 13.416H70.6132C70.4172 12.506 69.5982 11.904 68.5412 11.904C67.1062 11.904 66.1262 12.982 66.1262 14.515C66.1262 16.062 67.1062 17.084 68.5272 17.084C69.3392 17.084 69.9692 16.706 70.2352 16.209L70.2842 17.007H70.6832V14.291H68.3942V14.739H70.2072V14.998C70.2072 16.202 69.3882 16.608 68.5482 16.608C67.4212 16.608 66.6512 15.817 66.6512 14.515C66.6512 13.234 67.3792 12.38 68.5342 12.38ZM72.1882 17V12.828L74.9532 17H75.4502V11.988H74.9532V16.16L72.1952 11.988H71.6842V17H72.1882ZM83.0818 14.494C83.0818 12.968 82.1018 11.897 80.6948 11.897C79.2948 11.897 78.3078 12.975 78.3078 14.494C78.3078 16.013 79.2878 17.084 80.6948 17.084C82.0948 17.084 83.0818 16.013 83.0818 14.494ZM82.5638 14.494C82.5638 15.74 81.8008 16.601 80.6948 16.601C79.5888 16.601 78.8328 15.747 78.8328 14.494C78.8328 13.241 79.5888 12.387 80.6948 12.387C81.8008 12.387 82.5638 13.241 82.5638 14.494ZM84.4997 17V12.828L87.2647 17H87.7617V11.988H87.2647V16.16L84.5067 11.988H83.9957V17H84.4997Z" fill="white"/>
<defs>
<clipPath id="clip0_47_1105">
<rect width="16" height="20" fill="white" transform="translate(13 11)"/>
</clipPath>
</defs>
</svg>
